# 3ds Max Wavefront OBJ Exporter v0.97b - (c)2007 guruware
# File Created: 10.05.2018 20:49:23

mtllib box.mtl

#
# object Box
#

v  -1.2943 1.0384 2.4646
v  -1.2647 1.0253 2.4646
v  -1.9302 1.7115 2.4646
v  -1.9450 1.7115 2.4646
v  -1.9047 1.7115 2.4646
v  -1.2261 1.0205 2.4646
v  -1.3325 1.0601 2.4646
v  -1.9598 1.7115 2.4646
v  1.3046 1.0205 2.4857
v  1.3341 1.0205 2.4857
v  1.3341 1.7115 2.4857
v  1.3046 1.7115 2.4857
v  -1.2943 1.0384 2.4857
v  -1.2647 1.0253 2.4857
v  -1.9302 1.7115 2.4857
v  -1.9450 1.7115 2.4857
v  -1.2261 1.0205 2.4857
v  -1.9047 1.7115 2.4857
v  -1.3325 1.0601 2.4857
v  -1.9598 1.7115 2.4857
v  1.3046 1.0205 2.4646
v  1.3341 1.0205 2.4646
v  1.3341 1.7115 2.4646
v  1.3046 1.7115 2.4646
v  -1.2943 1.0384 -2.4616
v  -1.2647 1.0253 -2.4616
v  -1.9302 1.7115 -2.4616
v  -1.9450 1.7115 -2.4616
v  -1.2262 1.0205 -2.4616
v  -1.9047 1.7115 -2.4616
v  -1.3325 1.0601 -2.4616
v  -1.9598 1.7115 -2.4616
v  1.3341 1.7115 -2.4827
v  1.3341 1.0205 -2.4827
v  1.3046 1.0205 -2.4827
v  1.3046 1.7115 -2.4827
v  -1.9302 1.7115 -2.4827
v  -1.2647 1.0253 -2.4827
v  -1.2943 1.0384 -2.4827
v  -1.9450 1.7115 -2.4827
v  -1.9047 1.7115 -2.4827
v  -1.2262 1.0205 -2.4827
v  -1.3325 1.0601 -2.4827
v  -1.9598 1.7115 -2.4827
v  1.3341 1.0205 -2.4616
v  1.3046 1.0205 -2.4616
v  1.3341 1.7115 -2.4616
v  1.3046 1.7115 -2.4616
v  -1.9582 1.7101 2.4604
v  -1.9582 -1.8375 2.4604
v  1.2661 -1.8375 2.4604
v  1.2661 1.7101 2.4604
v  -1.9582 1.7101 -2.4604
v  -1.9582 -1.8375 -2.4604
v  1.2661 1.7101 -2.4604
v  1.2661 -1.8375 -2.4604
# 56 vertices

vn 0.0000 0.0000 1.0000
vn 0.0000 0.0000 -1.0000
vn -0.0000 -0.0000 1.0000
vn -0.7203 -0.6936 -0.0000
vn -0.4049 -0.9144 -0.0000
vn -0.4939 -0.8695 -0.0000
vn 0.0000 1.0000 -0.0000
vn 0.0000 -1.0000 -0.0000
vn -0.1226 -0.9925 -0.0000
vn 1.0000 0.0000 -0.0000
vn 0.0000 -0.0000 -1.0000
vn -1.0000 0.0000 -0.0000
vn 0.0000 0.0305 -0.9995
# 13 vertex normals

vt 0.0000 0.0000 0.0000
vt 0.0126 0.7632 0.0000
vt 0.0094 0.7632 0.0000
vt 0.0094 0.6891 0.0000
vt 0.0126 0.6891 0.0000
vt 0.2913 0.7613 0.0000
vt 0.2881 0.7627 0.0000
vt 0.3595 0.6891 0.0000
vt 0.3611 0.6891 0.0000
vt 0.2840 0.7632 0.0000
vt 0.3567 0.6891 0.0000
vt 0.2954 0.7590 0.0000
vt 0.3626 0.6891 0.0000
vt 0.5290 0.5668 0.0000
vt 0.5276 0.5100 0.0000
vt 0.5290 0.5099 0.0000
vt 0.5303 0.5668 0.0000
vt 0.5304 0.5696 0.0000
vt 0.5304 0.5716 0.0000
vt 0.5291 0.5716 0.0000
vt 0.5290 0.5696 0.0000
vt 0.0007 0.6303 0.0000
vt 0.0007 0.6289 0.0000
vt 0.0026 0.6289 0.0000
vt 0.0026 0.6303 0.0000
vt 0.0026 0.6316 0.0000
vt 0.0007 0.6316 0.0000
vt 0.5343 0.7330 0.0000
vt 0.5343 0.7349 0.0000
vt 0.5330 0.7349 0.0000
vt 0.5330 0.7330 0.0000
vt 0.0026 0.6266 0.0000
vt 0.0007 0.6266 0.0000
vt 0.0007 0.3356 0.0000
vt 0.0007 0.3329 0.0000
vt 0.0026 0.3329 0.0000
vt 0.0026 0.3356 0.0000
vt 0.5291 0.5741 0.0000
vt 0.5305 0.5740 0.0000
vt 0.4724 0.6552 0.0000
vt 0.4724 0.5957 0.0000
vt 0.4742 0.5957 0.0000
vt 0.4742 0.6552 0.0000
vt 0.0083 0.7658 0.0000
vt 0.0098 0.6784 0.0000
vt 0.0136 0.6785 0.0000
vt 0.0120 0.7658 0.0000
vt 0.4209 0.7702 0.0000
vt 0.3383 0.6850 0.0000
vt 0.3420 0.6867 0.0000
vt 0.4228 0.7702 0.0000
vt 0.4177 0.7701 0.0000
vt 0.3335 0.6843 0.0000
vt 0.3468 0.6895 0.0000
vt 0.4246 0.7702 0.0000
vt 0.8439 0.5114 0.0000
vt 0.8453 0.5114 0.0000
vt 0.8442 0.5680 0.0000
vt 0.8429 0.5680 0.0000
vt 0.8442 0.5728 0.0000
vt 0.8429 0.5727 0.0000
vt 0.8429 0.5707 0.0000
vt 0.8442 0.5707 0.0000
vt 0.4493 0.6290 0.0000
vt 0.4512 0.6290 0.0000
vt 0.4513 0.6303 0.0000
vt 0.4493 0.6303 0.0000
vt 0.4513 0.6317 0.0000
vt 0.4493 0.6317 0.0000
vt 0.8440 0.7349 0.0000
vt 0.8427 0.7349 0.0000
vt 0.8427 0.7330 0.0000
vt 0.8440 0.7330 0.0000
vt 0.4493 0.6266 0.0000
vt 0.4512 0.6266 0.0000
vt 0.4494 0.3329 0.0000
vt 0.4513 0.3329 0.0000
vt 0.4513 0.3356 0.0000
vt 0.4494 0.3356 0.0000
vt 0.8442 0.5752 0.0000
vt 0.8429 0.5752 0.0000
vt 0.8983 0.5957 0.0000
vt 0.9002 0.5957 0.0000
vt 0.9002 0.6552 0.0000
vt 0.8983 0.6552 0.0000
vt 0.4550 0.4767 0.0000
vt 0.4550 0.0083 0.0000
vt 0.8950 0.0083 0.0000
vt 0.8950 0.4767 0.0000
vt 0.9103 0.4910 0.0000
vt 0.9183 0.8380 0.0000
vt 0.4622 0.8380 0.0000
vt 0.4625 0.4910 0.0000
vt 0.4599 0.4787 0.0000
vt 0.4599 0.0058 0.0000
vt 0.8972 0.0058 0.0000
vt 0.8972 0.4787 0.0000
vt 0.4633 0.8399 0.0000
vt 0.4633 0.4923 0.0000
vt 0.9125 0.4923 0.0000
vt 0.9125 0.8399 0.0000
vt 0.0025 -0.0000 0.0000
vt 0.4467 -0.0000 0.0000
vt 0.4467 0.3261 0.0000
vt 0.0025 0.3261 0.0000
vt 0.7049 0.2251 0.0000
vt 0.7049 0.5346 0.0000
vt 0.5021 0.5346 0.0000
vt 0.5021 0.2251 0.0000
# 109 texture coords

o Box
g Box
usemtl Material__26
s off
f 1/1/1 2/1/1 3/1/1 
f 3/1/1 4/1/1 1/1/1 
f 5/1/2 6/1/2 2/1/2 
f 2/1/2 3/1/2 5/1/2 
f 7/1/1 1/1/1 4/1/1 
f 4/1/1 8/1/1 7/1/1 
f 9/2/1 10/3/1 11/4/1 
f 11/4/1 12/5/1 9/2/1 
f 13/6/1 14/7/1 15/8/1 
f 15/8/1 16/9/1 13/6/1 
f 14/7/3 17/10/3 18/11/3 
f 18/11/3 15/8/3 14/7/3 
f 19/12/1 13/6/1 16/9/1 
f 16/9/1 20/13/1 19/12/1 
f 19/14/4 20/15/4 8/16/4 
f 8/16/4 7/17/4 19/14/4 
f 1/18/5 2/19/5 14/20/5 
f 14/20/5 13/21/5 1/18/5 
f 7/17/6 1/18/6 13/21/6 
f 13/21/6 19/14/6 7/17/6 
f 16/22/7 15/23/7 3/24/7 
f 3/24/7 4/25/7 16/22/7 
f 4/25/7 8/26/7 20/27/7 
f 20/27/7 16/22/7 4/25/7 
f 21/28/8 22/29/8 10/30/8 
f 10/30/8 9/31/8 21/28/8 
f 5/32/7 3/24/7 15/23/7 
f 15/23/7 18/33/7 5/32/7 
f 12/34/7 11/35/7 23/36/7 
f 23/36/7 24/37/7 12/34/7 
f 17/38/9 14/20/9 2/19/9 
f 2/19/9 6/39/9 17/38/9 
f 11/40/10 10/41/10 22/42/10 
f 22/42/10 23/43/10 11/40/10 
f 24/1/2 21/1/2 6/1/2 
f 6/1/2 5/1/2 24/1/2 
f 17/10/1 9/2/1 12/5/1 
f 12/5/1 18/11/1 17/10/1 
f 6/39/8 21/28/8 9/31/8 
f 9/31/8 17/38/8 6/39/8 
f 18/33/7 12/34/7 24/37/7 
f 24/37/7 5/32/7 18/33/7 
f 25/1/1 26/1/1 27/1/1 
f 27/1/1 28/1/1 25/1/1 
f 26/1/3 29/1/3 30/1/3 
f 30/1/3 27/1/3 26/1/3 
f 31/1/1 25/1/1 28/1/1 
f 28/1/1 32/1/1 31/1/1 
f 33/44/2 34/45/2 35/46/2 
f 35/46/2 36/47/2 33/44/2 
f 37/48/11 38/49/11 39/50/11 
f 39/50/11 40/51/11 37/48/11 
f 41/52/2 42/53/2 38/49/2 
f 38/49/2 37/48/2 41/52/2 
f 40/51/11 39/50/11 43/54/11 
f 43/54/11 44/55/11 40/51/11 
f 32/56/4 44/57/4 43/58/4 
f 43/58/4 31/59/4 32/56/4 
f 38/60/5 26/61/5 25/62/5 
f 25/62/5 39/63/5 38/60/5 
f 31/59/6 43/58/6 39/63/6 
f 39/63/6 25/62/6 31/59/6 
f 27/64/7 37/65/7 40/66/7 
f 40/66/7 28/67/7 27/64/7 
f 44/68/7 32/69/7 28/67/7 
f 28/67/7 40/66/7 44/68/7 
f 34/70/8 45/71/8 46/72/8 
f 46/72/8 35/73/8 34/70/8 
f 37/65/7 27/64/7 30/74/7 
f 30/74/7 41/75/7 37/65/7 
f 47/76/7 33/77/7 36/78/7 
f 36/78/7 48/79/7 47/76/7 
f 26/61/9 38/60/9 42/80/9 
f 42/80/9 29/81/9 26/61/9 
f 45/82/10 34/83/10 33/84/10 
f 33/84/10 47/85/10 45/82/10 
f 29/1/1 46/1/1 48/1/1 
f 48/1/1 30/1/1 29/1/1 
f 36/47/2 35/46/2 42/53/2 
f 42/53/2 41/52/2 36/47/2 
f 35/73/8 46/72/8 29/81/8 
f 29/81/8 42/80/8 35/73/8 
f 48/79/7 36/78/7 41/75/7 
f 41/75/7 30/74/7 48/79/7 
f 5/32/7 30/74/7 27/64/7 
f 27/64/7 3/24/7 5/32/7 
f 27/64/7 28/67/7 4/25/7 
f 4/25/7 3/24/7 27/64/7 
f 4/25/7 28/67/7 32/69/7 
f 32/69/7 8/26/7 4/25/7 
f 24/37/7 48/79/7 30/74/7 
f 30/74/7 5/32/7 24/37/7 
f 49/86/1 50/87/1 51/88/1 
f 51/88/1 52/89/1 49/86/1 
f 53/90/12 54/91/12 50/92/12 
f 50/92/12 49/93/12 53/90/12 
f 55/94/2 56/95/2 54/96/2 
f 54/96/2 53/97/2 55/94/2 
f 52/98/10 51/99/10 56/100/10 
f 56/100/10 55/101/10 52/98/10 
f 50/102/8 54/103/8 56/104/8 
f 56/104/8 51/105/8 50/102/8 
f 53/106/7 49/107/7 52/108/7 
f 52/108/7 55/109/7 53/106/7 
f 24/37/7 23/36/7 47/76/7 
f 47/76/7 48/79/7 24/37/7 
f 23/43/10 22/42/10 45/82/10 
f 45/82/10 47/85/10 23/43/10 
f 45/1/1 47/1/1 48/1/1 
f 48/1/1 46/1/1 45/1/1 
f 12/1/13 11/1/13 22/1/13 
f 22/1/13 21/1/13 12/1/13 
f 21/28/8 46/72/8 45/71/8 
f 45/71/8 22/29/8 21/28/8 
# 114 faces

